<svg xmlns="http://www.w3.org/2000/svg" width="512" height="512" viewBox="0 0 512 512" role="img" aria-label="Motorsport Countdown maskable icon">
  <rect width="512" height="512" fill="#0b0b0b" />
  <g transform="translate(56 56)">
    <rect x="0" y="0" width="400" height="400" rx="84" fill="#141414" stroke="#ffd100" stroke-width="14" />
    <path d="M58 288 C112 210, 212 174, 334 152" fill="none" stroke="#ffd100" stroke-width="30" stroke-linecap="round" />
    <path d="M64 300 C142 236, 228 204, 344 182" fill="none" stroke="#2a2a2a" stroke-width="11" stroke-linecap="round" />
    <g transform="translate(250 84)">
      <rect x="0" y="0" width="96" height="70" rx="8" fill="#f5f5f5" />
      <rect x="0" y="0" width="24" height="24" fill="#111" />
      <rect x="48" y="0" width="24" height="24" fill="#111" />
      <rect x="24" y="24" width="24" height="24" fill="#111" />
      <rect x="72" y="24" width="24" height="24" fill="#111" />
      <rect x="0" y="48" width="24" height="22" fill="#111" />
      <rect x="48" y="48" width="24" height="22" fill="#111" />
    </g>
    <circle cx="90" cy="288" r="25" fill="#ffd100" />
    <circle cx="90" cy="288" r="11" fill="#0b0b0b" />
  </g>
</svg>
