<svg xmlns="http://www.w3.org/2000/svg" width="512" height="512" viewBox="0 0 512 512" role="img" aria-label="Motorsport Countdown icon">
  <rect width="512" height="512" rx="96" fill="#0b0b0b" />
  <rect x="44" y="44" width="424" height="424" rx="80" fill="#141414" stroke="#ffd100" stroke-width="16" />
  <path d="M92 352 C150 258, 276 216, 420 188" fill="none" stroke="#ffd100" stroke-width="34" stroke-linecap="round" />
  <path d="M100 364 C182 282, 292 244, 428 216" fill="none" stroke="#2a2a2a" stroke-width="12" stroke-linecap="round" />
  <g transform="translate(320 102)">
    <rect x="0" y="0" width="120" height="88" rx="10" fill="#f5f5f5" />
    <rect x="0" y="0" width="30" height="30" fill="#111" />
    <rect x="60" y="0" width="30" height="30" fill="#111" />
    <rect x="30" y="30" width="30" height="30" fill="#111" />
    <rect x="90" y="30" width="30" height="30" fill="#111" />
    <rect x="0" y="60" width="30" height="28" fill="#111" />
    <rect x="60" y="60" width="30" height="28" fill="#111" />
  </g>
  <circle cx="122" cy="352" r="30" fill="#ffd100" />
  <circle cx="122" cy="352" r="13" fill="#0b0b0b" />
</svg>
